<svg width="24" height="20" viewBox="0 0 24 20" fill="none" xmlns="http://www.w3.org/2000/svg">
<path d="M1.93561 19.4316C1.47283 19.4316 1.0679 19.2547 0.720821 18.9011C0.373737 18.5474 0.200195 18.1347 0.200195 17.6632V2.33679C0.200195 1.86521 0.373737 1.45257 0.720821 1.09889C1.0679 0.745202 1.47283 0.568359 1.93561 0.568359H21.6037C22.0665 0.568359 22.4714 0.745202 22.8185 1.09889C23.1656 1.45257 23.3391 1.86521 23.3391 2.33679V17.6632C23.3391 18.1347 23.1656 18.5474 22.8185 18.9011C22.4714 19.2547 22.0665 19.4316 21.6037 19.4316H1.93561ZM11.7696 10.5305L1.93561 3.95785V17.6632H21.6037V3.95785L11.7696 10.5305ZM11.7696 8.76208L21.488 2.33679H2.08023L11.7696 8.76208ZM1.93561 3.95785V2.33679V3.95785V17.6632V3.95785Z" fill="white"/>
</svg>
