<svg width="334" height="414" viewBox="0 0 334 414" fill="none" xmlns="http://www.w3.org/2000/svg">
<mask id="mask0_24314_12" style="mask-type:alpha" maskUnits="userSpaceOnUse" x="0" y="0" width="334" height="414">
<rect width="334" height="414" fill="#D9D9D9"/>
</mask>
<g mask="url(#mask0_24314_12)">
<path d="M105.314 427.966C71.3682 425.423 42.8488 400.867 33.6498 366.719C22.1815 324.231 24.1921 277.693 40.2526 236.819C61.7983 181.936 108.194 138.318 162.783 121.609C208.27 107.687 264.626 115.812 291.501 156.52C309.03 183.076 310.533 217.351 310.66 249.586C310.797 280.403 310.172 311.709 301.676 341.268C293.179 370.828 275.723 398.778 249.512 413.072C225.931 425.936 198.173 426.528 171.562 426.836C148.259 427.105 126.216 429.532 105.314 427.966Z" fill="#36D6AD"/>
<path d="M67.2852 175.602C79.175 156.792 91.3914 146.965 109.896 135.311C117.526 130.503 126.734 124.435 126.31 115.158C125.944 107.14 118.096 101.646 110.564 99.9254C93.6338 96.0683 75.6163 105.022 64.8283 119.123C54.0402 133.223 49.5651 151.612 48.6388 169.603C48.3756 174.568 48.9703 180.64 53.2992 182.767C58.3983 185.272 63.7753 180.17 67.2852 175.582" fill="#36D6AD"/>
<path d="M297.832 370.623C298.369 369.648 298.837 368.637 299.233 367.597C301.615 361.458 303.987 359.751 306.374 352.726C306.687 351.623 307.164 350.572 307.789 349.608C310.127 346.349 315.301 346.403 318.644 348.635C325.096 352.941 325.555 363.054 320.913 369.261C315.959 375.877 306.95 378.45 298.75 378.114C298.338 378.1 297.94 377.96 297.612 377.711C297.283 377.463 297.04 377.12 296.915 376.728C296.197 374.349 296.837 372.418 297.832 370.623Z" fill="#36D6AD"/>
<path d="M212.947 106.452C212.947 106.452 299.155 102.964 313.637 184.168" stroke="#36D6AD" stroke-width="2" stroke-miterlimit="10" stroke-linecap="round"/>
<path d="M20.4541 269.393C14.8462 277.786 -6.1373 341.436 41.6695 406.609" stroke="#36D6AD" stroke-width="2" stroke-miterlimit="10" stroke-linecap="round"/>
<path d="M315.263 230.107C313.163 244.14 305.285 257.402 293.382 265.156C289.832 267.461 285.631 269.751 284.547 273.857C283.852 276.46 284.62 279.228 285.325 281.806C296.527 323.46 294.292 367.607 278.94 407.905C277.914 410.561 273.927 418.554 273.927 418.554C273.927 418.554 212.368 431.25 193.696 431.45L194.523 425.376L195.447 418.54C196.862 408.012 198.539 395.927 200.392 382.949C211.333 306.084 228.04 197.739 229.115 194.306C232.377 183.828 239.501 213.911 239.788 224.887C241.774 222.255 244.287 220.07 247.166 218.472C250.044 216.874 253.224 215.899 256.5 215.61C253.991 203.921 254.482 195.175 257.9 184.126C257.955 183.942 258.062 183.778 258.209 183.655C258.355 183.532 258.534 183.455 258.724 183.434C258.914 183.412 259.106 183.448 259.276 183.535C259.446 183.623 259.586 183.758 259.68 183.925C266.347 195.503 267.134 205.62 271.102 219.453C271.768 221.762 271.54 224.824 273.786 225.649C275.157 226.137 276.67 225.537 278.002 224.946L301.828 214.399C305.857 212.622 309.89 210.831 313.926 209.028C315.919 215.868 316.376 223.068 315.263 230.107Z" fill="#FFF3DB"/>
<path d="M202.581 395.941C202.581 395.941 190.665 308.69 153.087 279.085C152.595 278.71 153.909 279.085 153.948 279.67C154.868 292.872 159.854 394.002 194.617 425.527L202.581 395.941Z" fill="#FFF3DB"/>
<path d="M315.271 230.071C308.599 226.427 304.201 219.509 301.79 214.622C305.826 212.874 309.865 211.114 313.907 209.341C315.913 216.066 316.378 223.147 315.271 230.071Z" fill="#1A2B60"/>
<path d="M252.144 245.246C253.169 247.872 253.188 250.332 252.187 250.742C251.185 251.152 249.544 249.351 248.523 246.73C247.502 244.109 247.479 241.644 248.48 241.234C249.482 240.824 251.123 242.62 252.144 245.246Z" fill="#1A2B60"/>
<path d="M266.215 238.585C267.236 241.207 267.255 243.669 266.254 244.079C265.252 244.489 263.611 242.692 262.591 240.064C261.57 237.437 261.546 234.975 262.548 234.57C263.549 234.165 265.19 235.957 266.215 238.585Z" fill="#1A2B60"/>
<path d="M289.944 264.128C289.944 264.128 276.145 279.866 264.031 265.451" stroke="#1A2B60" stroke-miterlimit="10" stroke-linecap="round"/>
<path d="M49.2608 424.295C49.2608 424.295 38.5304 312.603 76.1258 231.552L87.2952 260.976C92.9861 259.305 99.0363 259.305 104.727 260.976L116.336 231.552C116.336 231.552 165.427 334.488 156.282 436.633L49.2608 424.295Z" fill="white"/>
<path d="M86.3426 276.714C86.3426 279.988 85.3485 282.637 84.1215 282.637C82.8945 282.637 81.9004 279.988 81.9004 276.714C81.9004 273.44 82.8945 270.791 84.1215 270.791C85.3485 270.791 86.3426 273.426 86.3426 276.714Z" fill="#1A2B60"/>
<path d="M100.41 276.714C100.41 279.988 99.5814 282.637 98.5589 282.637C97.5364 282.637 96.708 279.988 96.708 276.714C96.708 273.44 97.5364 270.791 98.5589 270.791C99.5814 270.791 100.41 273.426 100.41 276.714Z" fill="#1A2B60"/>
<path d="M87.8239 298.184L50.8057 273.012" stroke="#1A2B60" stroke-width="0.5" stroke-miterlimit="10" stroke-linecap="round"/>
<path d="M87.8232 298.185L43.4014 310.03" stroke="#1A2B60" stroke-width="0.5" stroke-miterlimit="10" stroke-linecap="round"/>
<path d="M87.8236 298.185L52.2861 293.002" stroke="#1A2B60" stroke-width="0.5" stroke-miterlimit="10" stroke-linecap="round"/>
<path d="M93.0059 298.925L141.13 277.454" stroke="#1A2B60" stroke-width="0.5" stroke-miterlimit="10" stroke-linecap="round"/>
<path d="M93.0059 298.925L138.168 314.472" stroke="#1A2B60" stroke-width="0.5" stroke-miterlimit="10" stroke-linecap="round"/>
<path d="M93.0059 298.925L132.245 294.482" stroke="#1A2B60" stroke-width="0.5" stroke-miterlimit="10" stroke-linecap="round"/>
<path d="M118.454 363.597C135.173 367.023 153.321 363.157 167.083 352.983C173.891 347.942 179.727 341.468 183.534 333.824C187.263 326.219 189.219 317.858 189.253 309.377C189.286 300.897 187.397 292.521 183.729 284.886C181.876 281.104 179.538 277.583 176.775 274.413C173.638 270.816 169.894 267.817 166.037 265.042C158.349 259.507 149.431 254.701 143.804 246.974C141.169 243.357 139.267 239.55 138.586 235.121C138.021 230.997 139.004 226.81 141.344 223.376C146.304 215.85 155.388 212.091 162.492 206.635C166.266 203.733 169.835 200.273 171.858 195.898C173.769 191.748 174.625 186.976 173.429 182.494C172.844 180.358 171.783 178.385 170.327 176.724C169.471 175.745 167.769 175.838 166.888 176.724C166.444 177.189 166.196 177.809 166.196 178.454C166.196 179.099 166.444 179.719 166.888 180.184C167.156 180.474 167.391 180.792 167.589 181.133C167.857 181.563 168.096 182.011 168.304 182.474C168.167 182.166 168.338 182.548 168.352 182.592C168.44 182.827 168.522 183.081 168.6 183.306C168.77 183.873 168.907 184.45 169.009 185.034C169.15 185.822 169.009 184.603 169.052 185.401C169.052 185.572 169.082 185.743 169.091 185.89C169.118 186.408 169.118 186.928 169.091 187.446C169.076 188.373 168.948 189.295 168.712 190.192C167.739 194.263 165.434 197.562 162.254 200.469C155.572 206.61 146.693 210.104 140.342 216.833C137.162 220.205 134.623 224.37 133.874 229.019C133.197 233.629 133.839 238.338 135.727 242.594C137.603 246.896 140.255 250.812 143.547 254.143C146.951 257.677 151.001 260.584 155.033 263.358C159.064 266.133 163.066 268.663 166.82 271.678C168.623 273.114 170.332 274.665 171.936 276.322C172.585 277 173.212 277.7 173.818 278.421C174.562 279.302 174.873 279.708 175.476 280.545C176.665 282.2 177.743 283.931 178.705 285.728C179.571 287.34 180.337 289.003 181.001 290.71C182.441 294.465 183.436 298.377 183.967 302.366C183.918 302.004 183.967 302.43 183.967 302.484C183.996 302.738 184.03 302.973 184.059 303.252C184.113 303.742 184.161 304.275 184.2 304.789C184.285 305.817 184.337 306.848 184.356 307.882C184.404 309.861 184.342 311.841 184.171 313.813C184.127 314.302 184.074 314.841 184.016 315.355C183.986 315.609 183.957 315.844 183.923 316.123C183.977 315.731 183.899 316.275 183.889 316.368C183.734 317.431 183.546 318.488 183.325 319.539C182.924 321.473 182.414 323.383 181.798 325.26C181.501 326.16 181.181 327.046 180.826 327.927C180.471 328.807 180.227 329.395 179.746 330.408C177.197 335.817 173.651 340.689 169.296 344.766C166.42 347.515 163.232 349.913 159.798 351.911C156.401 353.958 152.793 355.626 149.037 356.888C141.427 359.504 133.351 360.463 125.345 359.702C123.47 359.534 121.608 359.253 119.767 358.86C119.146 358.703 118.489 358.793 117.932 359.111C117.375 359.429 116.961 359.951 116.776 360.568C116.446 361.777 117.18 363.313 118.473 363.578L118.454 363.597Z" fill="white"/>
<path d="M147.82 53.864C142.579 52.5191 137.72 49.9658 133.63 46.4062C129.539 42.8466 126.328 38.3785 124.252 33.3554C122.944 30.1198 122.133 26.5306 122.948 23.1379C123.764 19.7452 126.561 16.6667 130.023 16.4212C132.684 16.2297 135.248 17.7027 137.025 19.701C138.802 21.6993 139.954 24.1838 141.033 26.624C139.276 22.2051 137.493 17.467 138.372 12.783C139.251 8.09894 143.982 3.82242 148.494 5.29539C152.4 6.56705 154.045 11.1136 154.919 15.1152C157.737 28.092 157.649 42.3405 151.082 53.8591" fill="#FC7071"/>
<path d="M187.702 58.5378C185.095 55.7575 183.178 52.414 182.102 48.7721C181.027 45.1302 180.822 41.29 181.504 37.556C181.958 35.161 182.843 32.7513 184.622 31.0714C186.402 29.3915 189.244 28.6519 191.394 29.8225C193.05 30.7237 194.014 32.5603 194.305 34.4067C194.597 36.2532 194.305 38.1388 194.053 39.9852C194.696 36.7234 195.437 33.2754 197.75 30.8608C200.064 28.4462 204.502 27.7459 206.647 30.3221C208.476 32.5456 207.73 35.8418 206.717 38.5306C203.44 47.2094 197.958 55.5306 189.654 59.7867" fill="#FCF0E3"/>
<path d="M172.508 96.2136C170.181 97.5033 167.598 98.2109 164.963 98.2802C162.327 98.3495 159.713 97.7787 157.326 96.6129C155.802 95.8538 154.335 94.7939 153.54 93.246C152.745 91.6982 152.726 89.5983 153.895 88.3166C154.372 87.8553 154.943 87.5114 155.564 87.3101C156.186 87.1088 156.843 87.0552 157.487 87.1533C158.773 87.3589 160.021 87.7679 161.188 88.366C159.115 87.3111 156.929 86.1576 155.717 84.1069C154.506 82.0563 154.813 78.8472 156.919 77.8564C158.736 76.9987 160.819 78.1275 162.442 79.3352C167.691 83.2147 172.314 88.5631 173.706 95.1094" fill="#36D6AD"/>
</g>
</svg>
