<svg width="349" height="344" viewBox="0 0 349 344" fill="none" xmlns="http://www.w3.org/2000/svg">
<mask id="mask0_24318_265" style="mask-type:alpha" maskUnits="userSpaceOnUse" x="63" y="0" width="287" height="279">
<rect x="63.001" width="286" height="279" fill="#D9D9D9"/>
</mask>
<g mask="url(#mask0_24318_265)">
<g clip-path="url(#clip0_24318_265)">
<path d="M218.189 51.0804C214.496 58.6118 208.492 73.6564 213.192 78.5865C217.847 83.4579 222.552 81.1261 222.552 81.1261C222.552 81.1261 217.247 93.7495 223.571 99.6262C231.387 106.892 238.603 100.551 238.603 100.551C238.603 100.551 236.893 110.007 247.143 112.968C255.44 115.365 263.543 104.327 263.543 104.327C263.543 104.327 263.96 109.569 270.541 111.043C277.186 112.534 286.986 99.6528 291.54 92.6118C296.567 84.8389 352.967 -11.8591 352.967 -11.8591L274.17 -56.4556C274.17 -56.4556 222.265 42.7707 218.189 51.0804Z" fill="#DEB180"/>
<path d="M250.712 76.1765C262.335 82.7527 278.059 79.9404 275.404 70.3612C272.75 60.782 264.642 66.6936 257.851 62.8483C251.437 59.1991 251.694 50.8835 244.117 51.4404C236.54 51.9974 237.544 68.7215 250.712 76.1765Z" fill="#2D2B2C"/>
<path d="M271.866 104.992C275.17 106.501 277.874 103.546 279.436 99.8889C280.999 96.2319 280.32 92.8154 278.023 91.8197C275.726 90.8241 272.145 93.036 270.254 96.8093C268.363 100.583 269.181 103.767 271.866 104.992Z" fill="#2D2B2C"/>
<path d="M254.116 93.9294C251.816 92.9322 248.238 95.1457 246.345 98.9218C244.452 102.698 245.266 105.884 247.957 107.104C251.262 108.614 253.966 105.658 255.529 101.999C257.093 98.3388 256.413 94.925 254.116 93.9294Z" fill="#2D2B2C"/>
<path d="M235.078 83.1526C232.781 82.157 229.199 84.3716 227.31 88.1466C225.422 91.9216 226.231 95.1086 228.922 96.3287C232.224 97.8368 234.931 94.883 236.493 91.2261C238.055 87.5692 237.373 84.151 235.078 83.1526Z" fill="#2D2B2C"/>
<path d="M217.735 67.0792C215.853 70.8617 216.656 74.0412 219.347 75.2613C222.649 76.7694 225.355 73.8156 226.919 70.1559C228.483 66.4961 227.8 63.0808 225.503 62.0851C223.206 61.0895 219.611 63.2934 217.735 67.0792Z" fill="#2D2B2C"/>
<g opacity="0.2">
<path opacity="0.2" d="M260.86 76.1855C267.699 76.8984 272.218 74.1903 271.427 71.3358C270.636 68.4814 264.661 72.454 260.645 71.2508C256.875 70.117 251.272 67.3996 249.985 68.8274C247.829 71.2167 253.475 75.4145 260.86 76.1855Z" fill="white"/>
<path opacity="0.2" d="M273.178 102.614C274.566 103.501 276.016 101.636 276.892 100.305C277.619 99.2028 278.504 97.517 277.526 96.768C276.549 96.019 275.388 97.6484 274.483 98.5371C273.577 99.4259 272.046 101.889 273.178 102.614Z" fill="white"/>
<path opacity="0.2" d="M253.189 99.5511C252.21 98.7977 251.051 100.431 250.143 101.323C249.236 102.215 247.708 104.672 248.84 105.398C250.227 106.287 251.678 104.419 252.554 103.088C253.284 101.98 254.168 100.297 253.189 99.5511Z" fill="white"/>
<path opacity="0.2" d="M229.835 94.3281C231.222 95.2172 232.673 93.3497 233.549 92.0181C234.275 90.9192 235.164 89.2321 234.182 88.4844C233.2 87.7366 232.045 89.3619 231.138 90.2535C230.231 91.1451 228.701 93.6054 229.835 94.3281Z" fill="white"/>
<path opacity="0.2" d="M219.842 72.8281C221.229 73.7172 222.681 71.8497 223.557 70.5181C224.282 69.4192 225.172 67.7321 224.191 66.9816C223.211 66.2311 222.053 67.8619 221.146 68.7535C220.239 69.6451 218.709 72.1054 219.842 72.8281Z" fill="white"/>
</g>
<path d="M281.755 -45.0557C278.278 -47.0526 274.674 -48.8187 270.965 -50.3427C268.655 -45.9183 265.243 -39.3943 261.246 -31.7437C273.697 -24.9818 289.422 -19.3061 292.941 -18.2449C307.955 -13.7105 323.864 -12.1348 337.669 -4.3139C340.128 -2.91441 342.883 -1.23235 345.626 0.702954C348.099 -3.53243 350.077 -6.92337 351.355 -9.11163C347.905 -10.0264 344.42 -10.9906 340.938 -12.2012C326.293 -17.2882 313.146 -27.273 299.654 -34.9271L281.755 -45.0557Z" fill="#2D2B2C"/>
<path d="M249.808 -9.82928C253.472 -4.62882 259.934 -1.84518 265.885 1.17067C285.657 11.2497 308.018 20.8677 326.002 34.2642C328.958 29.2184 331.858 24.2589 334.611 19.5497C329.821 16.687 325.939 14.0374 324.629 13.1293C306.21 0.581882 282.335 -24.3945 257.661 -24.8742C255.146 -20.0584 252.501 -14.9917 249.808 -9.82928Z" fill="#2D2B2C"/>
<path d="M239.038 10.8177C235.477 17.6568 232.071 24.1956 229.071 29.9688C233.163 33.9217 237.641 37.4538 242.438 40.5118C254.411 48.1134 267.428 53.8226 280.45 59.2942C288.818 62.8147 297.647 65.1484 306.332 67.7816C309.319 62.7129 312.57 57.1752 315.926 51.4601C297.168 42.5472 279.754 30.3234 261.241 20.9536C258.615 19.6115 248.703 14.4495 239.038 10.8177Z" fill="#2D2B2C"/>
</g>
<g clip-path="url(#clip1_24318_265)">
<path d="M217.733 152.68C217.733 152.68 206.361 145.653 204.625 147.611C202.457 150.042 212.896 159.373 212.896 159.373L217.733 152.68Z" fill="#7A796E"/>
<path d="M199.025 185.737C199.025 185.737 185.787 184.022 185.002 186.533C184.025 189.644 197.385 193.826 197.385 193.826L199.025 185.737Z" fill="#7A796E"/>
<path d="M247.978 256.836C247.978 256.836 242.236 268.888 239.707 268.197C236.565 267.327 240.301 253.826 240.301 253.826L247.978 256.836Z" fill="#7A796E"/>
<path d="M214.359 239.181C214.359 239.181 204.161 247.795 202.138 246.11C199.635 244.025 208.598 233.271 208.598 233.271L214.359 239.181Z" fill="#7A796E"/>
<path d="M218.252 149.324C199.933 160.577 213.261 176.605 213.261 176.605C213.261 176.605 192.89 177.3 194.027 192.508C194.942 204.732 205.317 210.775 208.324 211.597C206.35 213.65 200.544 226.173 207.812 236.56C216.722 249.292 231.015 238.734 231.015 238.734C231.015 238.734 228.351 259.419 249.84 259.096C267.09 258.845 262.529 234.579 269.458 231.582C276.386 228.585 373.051 211.674 373.051 211.674L347.686 123.347C347.686 123.347 257.022 160.856 249.565 162.038C242.108 163.221 232.963 140.292 218.252 149.324Z" fill="#FCF0E3"/>
<path d="M231.168 204.557C234.728 217.627 247.966 226.95 252.959 218.201C257.953 209.452 247.921 207.828 245.838 200.182C243.87 192.961 250.05 187.214 244.241 182.146C238.432 177.077 227.135 189.756 231.168 204.557Z" fill="#1A1A1A"/>
<path d="M242.074 244.277C240.854 248.378 242.205 251.416 245.103 252.173C248.663 253.101 250.847 249.698 251.771 245.765C252.696 241.833 251.426 238.546 248.965 237.944C246.504 237.342 243.293 240.159 242.074 244.277Z" fill="#1A1A1A"/>
<path d="M223.935 220.619C221.927 219.065 217.853 220.337 215.065 223.583C212.278 226.829 212.276 230.155 214.612 232.025C217.486 234.328 220.879 232.114 223.314 228.904C225.75 225.693 225.939 222.173 223.935 220.619Z" fill="#1A1A1A"/>
<path d="M218.897 159.308C217.005 161.626 217.712 164.878 221.12 167.468C224.528 170.057 228.781 170.455 230.411 168.505C232.042 166.556 231.122 163.166 228.064 160.535C225.006 157.904 221.224 156.455 218.897 159.308Z" fill="#1A1A1A"/>
<path d="M203.407 193.177C202.627 196.069 204.588 198.752 208.76 199.723C212.933 200.693 216.965 199.314 217.665 196.874C218.365 194.433 216.135 191.705 212.277 190.561C208.418 189.416 204.371 189.626 203.407 193.177Z" fill="#1A1A1A"/>
<path d="M273.524 223.55C275.99 223.03 278.458 222.503 280.931 222.022C282.831 221.657 284.977 221.103 286.897 221.195C287.954 221.246 288.908 220.282 288.957 219.457C289.027 218.477 288.149 217.942 287.091 217.891C284.951 217.798 282.543 218.417 280.417 218.82C277.827 219.309 275.247 219.867 272.669 220.41C270.159 220.942 271.03 224.077 273.527 223.559L273.524 223.55Z" fill="#2D2B2C"/>
<path d="M282.243 214.205C284.518 213.308 286.793 212.407 289.094 211.567C290.814 210.936 293.39 209.977 294.791 209.826C297.312 209.558 297.531 206.247 294.985 206.522C292.795 206.753 290.651 207.561 288.589 208.301C286.164 209.169 283.779 210.123 281.388 211.065C280.381 211.461 279.641 212.218 279.899 213.162C280.109 213.934 281.235 214.608 282.246 214.214L282.243 214.205Z" fill="#2D2B2C"/>
<path d="M273.18 205.149C274.641 204.437 276.023 203.596 277.418 202.79C278.156 202.362 278.901 201.936 279.651 201.526C279.943 201.358 280.266 201.192 280.581 201.035C280.709 200.97 280.84 200.907 280.969 200.848C281.514 200.592 280.633 200.94 281.07 200.821C283.512 200.064 282.666 196.922 280.212 197.672C278.763 198.12 277.438 198.969 276.158 199.703C274.566 200.617 272.998 201.579 271.337 202.4C269.049 203.514 270.896 206.262 273.18 205.149Z" fill="#2D2B2C"/>
<path d="M264.77 188.391C270.114 187.127 275.226 185.112 280.513 183.652C282.987 182.977 282.129 179.828 279.655 180.502C274.368 181.963 269.256 183.978 263.912 185.241C261.414 185.831 262.279 188.968 264.77 188.391Z" fill="#2D2B2C"/>
<path d="M288.391 189.373C292 188.163 295.783 187.359 299.21 185.691C301.493 184.572 299.646 181.824 297.363 182.94C294.283 184.456 290.801 185.137 287.542 186.232C285.128 187.042 285.968 190.186 288.4 189.381L288.391 189.373Z" fill="#2D2B2C"/>
<path d="M289.088 172.99C291.187 171.555 293.809 170.641 296.336 170.122C298.863 169.603 297.973 166.472 295.478 166.973C292.233 167.636 289.151 168.935 286.41 170.796C286.226 170.926 286.074 171.097 285.966 171.295C285.858 171.493 285.796 171.713 285.787 171.939C285.777 172.164 285.819 172.389 285.91 172.596C286.001 172.802 286.137 172.985 286.31 173.131C287.105 173.78 288.215 173.576 289.085 172.977L289.088 172.99Z" fill="#2D2B2C"/>
<path d="M262.184 174.869C265.325 173.506 267.632 170.827 270.98 169.837C273.433 169.108 272.584 165.966 270.122 166.688C266.334 167.808 263.85 170.582 260.335 172.112C257.997 173.127 259.856 175.872 262.181 174.86L262.184 174.869Z" fill="#2D2B2C"/>
<path d="M290.028 158.075C294.335 155.748 299.092 154.253 303.528 152.148C305.829 151.061 303.974 148.305 301.682 149.4C297.247 151.494 292.489 153 288.183 155.323C285.961 156.524 287.795 159.279 290.028 158.075Z" fill="#2D2B2C"/>
<path d="M313.618 166.987C317.224 165.767 320.769 164.385 324.451 163.358C326.923 162.685 326.068 159.535 323.593 160.209C319.917 161.231 316.371 162.613 312.76 163.837C310.348 164.654 311.184 167.799 313.618 166.987Z" fill="#2D2B2C"/>
<path d="M299.116 199.49C302.41 198.812 305.698 198.136 308.949 197.261C311.424 196.587 310.571 193.456 308.091 194.112C304.843 194.996 301.552 195.663 298.258 196.341C295.747 196.859 296.622 199.993 299.116 199.49Z" fill="#2D2B2C"/>
<path d="M299.203 218.965C302.701 218.5 306.196 218.596 309.695 218.137C312.199 217.793 312.419 214.496 309.889 214.833C306.392 215.299 302.897 215.202 299.401 215.661C296.894 216.005 296.677 219.302 299.203 218.965Z" fill="#2D2B2C"/>
<path d="M313.312 208.227C317.184 206.942 321.057 205.664 324.85 204.184C325.857 203.791 326.596 203.032 326.339 202.087C326.128 201.315 325.003 200.644 323.992 201.035C320.199 202.514 316.327 203.799 312.454 205.078C310.034 205.879 310.874 209.027 313.312 208.227Z" fill="#2D2B2C"/>
<path d="M336.959 208.29C341.567 206.839 346.325 206.043 350.526 203.633C352.709 202.385 350.88 199.626 348.683 200.884C344.797 203.11 340.359 203.808 336.104 205.15C333.669 205.919 334.511 209.062 336.962 208.299L336.959 208.29Z" fill="#2D2B2C"/>
<path d="M326.033 194.406C330.069 193.266 333.771 191.391 337.271 189.261C339.402 187.959 337.579 185.198 335.424 186.513C332.22 188.465 328.878 190.221 325.177 191.266C322.712 191.962 323.561 195.09 326.035 194.416L326.033 194.406Z" fill="#2D2B2C"/>
<path d="M310.743 185.696C314.395 184.059 318.128 182.612 321.928 181.36C324.346 180.552 323.506 177.408 321.07 178.211C316.934 179.576 312.871 181.154 308.897 182.938C306.576 183.99 308.431 186.732 310.741 185.687L310.743 185.696Z" fill="#2D2B2C"/>
<path d="M326.453 171.747C329.594 169.86 334.04 168.598 337.71 168.68C340.23 168.741 340.399 165.434 337.907 165.375C333.631 165.275 328.273 166.796 324.61 168.998C322.466 170.289 324.289 173.05 326.453 171.747Z" fill="#2D2B2C"/>
<path d="M340.178 179.761C343.426 178.876 346.686 177.541 350.056 177.685C351.117 177.735 352.068 176.775 352.115 175.944C352.187 174.97 351.309 174.424 350.25 174.378C346.532 174.224 342.899 175.63 339.322 176.621C336.848 177.295 337.706 180.445 340.18 179.77L340.178 179.761Z" fill="#2D2B2C"/>
<path d="M349.227 192.806C352.02 191.788 354.564 190.313 357.323 189.247C358.332 188.857 359.073 188.094 358.816 187.149C358.605 186.374 357.479 185.713 356.465 186.098C353.714 187.155 351.152 188.638 348.369 189.657C347.352 190.025 346.623 190.809 346.88 191.754C347.095 192.544 348.209 193.171 349.227 192.806Z" fill="#2D2B2C"/>
<path d="M343.492 162.89C345.215 161.378 347.39 160.373 349.411 159.2C351.582 157.932 349.755 155.179 347.567 156.448C345.249 157.796 342.794 158.976 340.817 160.706C338.973 162.321 341.643 164.506 343.492 162.89Z" fill="#2D2B2C"/>
<path d="M328.051 153.129C328.199 152.94 327.732 153.408 328.147 153.069C328.312 152.946 328.297 152.95 328.103 153.081C328.251 152.98 328.408 152.886 328.562 152.797C329.145 152.461 329.745 152.157 330.361 151.887C331.872 151.216 333.416 150.623 334.987 150.109C336.638 149.548 338.32 149.049 340.014 148.621C341.307 148.296 341.954 148.093 343.093 148.121C345.609 148.193 345.775 144.887 343.286 144.814C341.942 144.777 340.477 145.166 339.16 145.488C337.26 145.955 335.394 146.541 333.54 147.178C331.674 147.805 329.842 148.53 328.052 149.35C326.818 149.926 325.512 150.627 324.72 151.648C323.267 153.519 326.59 154.992 328.031 153.114L328.051 153.129Z" fill="#2D2B2C"/>
<path d="M340.714 141.336C342.098 140.731 343.519 140.213 344.967 139.785C347.432 139.089 346.583 135.961 344.109 136.635C342.323 137.17 340.572 137.817 338.867 138.571C338.654 138.658 338.462 138.788 338.303 138.955C338.145 139.121 338.023 139.319 337.946 139.536C337.869 139.752 337.839 139.983 337.858 140.212C337.876 140.442 337.943 140.665 338.053 140.866C338.611 141.672 339.721 141.742 340.711 141.323L340.714 141.336Z" fill="#2D2B2C"/>
<path d="M310.12 156.88C311.136 155.277 313.172 154.232 314.688 152.977C316.584 151.408 313.912 149.223 312.012 150.793C310.219 152.296 308.018 153.491 306.805 155.398C305.592 157.305 308.878 158.842 310.12 156.88Z" fill="#2D2B2C"/>
<path d="M267.164 163.905C270.237 163.034 273.127 161.651 276.261 160.98C278.768 160.439 277.897 157.303 275.403 157.83C272.269 158.502 269.379 159.884 266.307 160.759C263.843 161.457 264.691 164.582 267.165 163.908L267.164 163.905Z" fill="#2D2B2C"/>
<g opacity="0.26">
<path opacity="0.26" d="M238.069 212.344C242.435 217.782 247.605 219.103 249.09 216.496C250.575 213.889 243.46 212.421 241.462 208.669C239.586 205.144 237.552 199.166 235.601 199.258C232.346 199.41 233.355 206.473 238.069 212.344Z" fill="#F08641"/>
<path opacity="0.26" d="M246.683 250.832C248.192 251.548 249.418 249.475 250.12 248.035C250.709 246.836 251.382 245.032 250.305 244.399C249.227 243.766 248.256 245.559 247.474 246.567C246.691 247.576 245.453 250.247 246.683 250.832Z" fill="#F08641"/>
<path opacity="0.26" d="M215.831 230.872C216.799 232.232 218.877 231.016 220.192 230.103C221.288 229.341 222.756 228.095 222.121 227.017C221.486 225.938 219.763 227.04 218.593 227.531C217.423 228.023 215.039 229.761 215.831 230.872Z" fill="#F08641"/>
<path opacity="0.26" d="M205.058 194.638C204.443 196.189 206.587 197.266 208.068 197.878C209.301 198.388 211.145 198.944 211.706 197.827C212.266 196.71 210.418 195.867 209.355 195.139C208.292 194.41 205.557 193.372 205.058 194.638Z" fill="#F08641"/>
<path opacity="0.26" d="M219.734 161.191C218.687 162.491 220.411 164.169 221.643 165.194C222.669 166.047 224.261 167.129 225.13 166.229C226 165.33 224.486 163.976 223.689 162.962C222.893 161.947 220.59 160.129 219.734 161.191Z" fill="#F08641"/>
</g>
</g>
<g clip-path="url(#clip2_24318_265)">
<path d="M100.974 115.896C100.974 115.896 92.3355 125.201 93.8425 127.196C95.7078 129.669 106.321 121.636 106.321 121.636L100.974 115.896Z" fill="#2D2B2C"/>
<path d="M128.338 139.454C128.338 139.454 124.305 151.492 126.501 152.689C129.219 154.171 135.575 142.474 135.575 142.474L128.338 139.454Z" fill="#2D2B2C"/>
<path d="M203.592 106.879C203.592 106.879 213.777 114.462 212.659 116.696C211.272 119.451 199.379 113.493 199.379 113.493L203.592 106.879Z" fill="#2D2B2C"/>
<path d="M180.961 135.014C180.961 135.014 187.111 146.119 185.166 147.677C182.745 149.632 174.386 139.267 174.386 139.267L180.961 135.014Z" fill="#2D2B2C"/>
<path d="M97.9427 114.785C105.059 133.953 122.455 124.472 122.455 124.472C122.455 124.472 119.356 143.612 133.736 145.355C145.296 146.754 152.834 138.186 154.153 135.533C155.702 137.753 166.303 145.481 177.323 140.612C190.825 134.649 183.614 119.362 183.614 119.362C183.614 119.362 202.39 125.667 206.049 105.545C208.987 89.4039 185.539 89.1864 184.021 82.1654C182.504 75.1445 184.524 -18.1667 184.524 -18.1667L97.5559 -10.7886C97.5559 -10.7886 115.834 80.7418 115.568 87.9175C115.302 95.0933 92.2332 99.4002 97.9427 114.785Z" fill="#FDBF12"/>
<path d="M151.78 112.936C164.61 112.023 175.733 101.391 168.502 95.1165C161.27 88.8416 156.95 86.1489 149.451 86.6835C142.359 87.1875 139.099 92.1172 133.309 96.6024C127.519 101.088 137.26 113.961 151.78 112.936Z" fill="#2D2B2C"/>
<path d="M190.802 110.074C194.403 111.972 197.482 111.27 198.718 108.707C200.238 105.553 197.483 102.877 193.974 101.301C190.464 99.7243 187.185 100.293 186.17 102.481C185.155 104.668 187.202 108.18 190.802 110.074Z" fill="#2D2B2C"/>
<path d="M165.423 122.64C163.619 124.226 164.041 128.266 166.555 131.466C169.068 134.666 172.167 135.279 174.339 133.444C177.012 131.186 175.573 127.614 173.028 124.744C170.482 121.875 167.241 121.056 165.423 122.64Z" fill="#2D2B2C"/>
<path d="M107.365 116.034C109.18 118.227 112.335 118.155 115.377 115.467C118.419 112.78 119.563 108.869 118.054 106.985C116.545 105.101 113.21 105.336 110.195 107.706C107.18 110.077 105.134 113.332 107.365 116.034Z" fill="#2D2B2C"/>
<path d="M136.083 136.739C138.632 138.003 141.494 136.661 143.166 132.953C144.837 129.244 144.295 125.22 142.151 124.116C140.007 123.011 137.053 124.588 135.269 127.98C133.485 131.373 132.945 135.184 136.083 136.739Z" fill="#2D2B2C"/>
<path d="M161.922 43.164C152.916 46.717 156.825 61.1982 161.559 66.3353C165.961 71.1293 176.439 73.0286 183.508 70.2572C183.403 61.686 183.469 49.4479 183.61 36.7838C180.898 39.1078 178.142 41.5802 174.929 42.7802C170.611 44.4075 165.846 41.6152 161.922 43.164Z" fill="#2D2B2C"/>
<path d="M110.173 54.6162C119.331 53.4682 126.595 50.8147 133.555 43.3676C140.772 35.6464 147.669 28.2252 155.97 21.6387C162.115 16.7748 164.667 12.6548 164.113 4.89037C163.662 -1.34071 162.595 -9.31575 159.782 -16.057L97.5545 -10.7749C97.5545 -10.7749 104.866 25.8745 110.173 54.6162Z" fill="#2D2B2C"/>
<g opacity="0.33">
<path opacity="0.33" d="M160.183 108.315C166.051 105.241 168.248 100.643 166.079 98.7922C163.909 96.9415 161.243 103.297 157.379 104.467C153.751 105.567 147.806 106.366 147.531 108.202C147.075 111.269 153.844 111.628 160.183 108.315Z" fill="#DEB180"/>
<path opacity="0.33" d="M197.63 107.369C198.576 106.097 196.867 104.57 195.656 103.641C194.648 102.872 193.09 101.912 192.302 102.798C191.514 103.685 193.003 104.913 193.799 105.841C194.594 106.769 196.861 108.411 197.63 107.369Z" fill="#DEB180"/>
<path opacity="0.33" d="M173.358 132.482C174.801 131.831 174.058 129.665 173.442 128.271C172.933 127.108 172.042 125.51 170.917 125.906C169.792 126.303 170.503 128.093 170.748 129.295C170.992 130.497 172.175 133.018 173.358 132.482Z" fill="#DEB180"/>
<path opacity="0.33" d="M137.61 135.855C138.941 136.703 140.357 134.927 141.197 133.643C141.896 132.592 142.755 130.97 141.816 130.239C140.876 129.508 139.754 131.079 138.878 131.935C138.002 132.791 136.52 135.156 137.61 135.855Z" fill="#DEB180"/>
<path opacity="0.33" d="M109.141 115.991C110.157 117.198 112.043 115.908 113.223 114.947C114.209 114.145 115.51 112.858 114.831 111.882C114.151 110.907 112.612 112.071 111.523 112.624C110.433 113.177 108.31 114.978 109.141 115.991Z" fill="#DEB180"/>
</g>
</g>
</g>
<defs>
<clipPath id="clip0_24318_265">
<rect width="90.5386" height="161.323" fill="white" transform="translate(273.188 128.343) rotate(-150.361)"/>
</clipPath>
<clipPath id="clip1_24318_265">
<rect width="125.831" height="175.006" fill="white" transform="translate(209.353 276.595) rotate(-105.24)"/>
</clipPath>
<clipPath id="clip2_24318_265">
<rect width="119.525" height="166.567" fill="white" transform="translate(215.594 144.841) rotate(174.309)"/>
</clipPath>
</defs>
</svg>
