<svg width="260" height="64" viewBox="0 0 260 64" fill="none" xmlns="http://www.w3.org/2000/svg">
<path d="M82.2424 0H87.8016V47.9496C87.8082 48.6511 87.6794 49.3467 87.423 49.995C87.1666 50.6433 86.7878 51.2309 86.3093 51.7227C85.8524 52.2329 85.299 52.6382 84.6842 52.9128C84.0694 53.1874 83.4067 53.3253 82.7382 53.3177H77.6701V50.2673C74.5905 52.2105 71.0643 53.2441 67.4672 53.2579C64.792 53.2989 62.1371 52.7663 59.6664 51.693C57.1957 50.6197 54.9616 49.0285 53.102 47.0175C51.2075 45.0444 49.7047 42.6991 48.6803 40.1166C47.6559 37.5342 47.13 34.7654 47.1328 31.9697C47.1341 29.1798 47.6611 26.4175 48.6838 23.8406C49.7065 21.2637 51.2048 18.9227 53.0931 16.9513C54.9815 14.9799 57.2229 13.4168 59.6892 12.3513C62.1556 11.2858 64.7985 10.7387 67.4672 10.7413C71.0537 10.7479 74.5744 11.7489 77.6701 13.6422V4.78499C77.6701 3.51679 78.1517 2.30047 79.009 1.40325C79.8663 0.506035 81.0293 0.00132104 82.2424 0ZM77.6701 32.2887V31.6357C77.6363 29.8009 77.1325 28.0091 76.2112 26.447C75.3075 24.8977 74.0428 23.6132 72.5353 22.7137C70.9811 21.8027 69.228 21.3271 67.4461 21.3333C65.6643 21.3394 63.9142 21.8269 62.3657 22.7486C60.8257 23.6832 59.5456 25.0215 58.6517 26.6314C57.5174 28.6605 57.0589 31.0255 57.348 33.3562C57.637 35.6868 58.6572 37.8514 60.2488 39.511C62.1363 41.5113 64.7064 42.646 67.394 42.6657C70.0816 42.6853 72.6666 41.5882 74.5806 39.6157C75.5318 38.6673 76.2944 37.5318 76.8246 36.2744C77.3548 35.017 77.6421 33.6625 77.6701 32.2887Z" fill="#FCF0E3"/>
<path d="M98.0574 16.9821C101.876 12.9929 107.052 10.7487 112.45 10.7412C117.849 10.7338 123.03 12.9636 126.859 16.9422C128.791 18.8826 130.321 21.2175 131.353 23.8018C132.386 26.3861 132.899 29.1647 132.862 31.9651C132.903 34.7673 132.394 37.5486 131.368 40.1375C130.341 42.7263 128.818 45.0679 126.893 47.0179C125.002 48.9959 122.757 50.5651 120.286 51.6357C117.815 52.7063 115.167 53.2573 112.492 53.2573C109.817 53.2573 107.168 52.7063 104.697 51.6357C102.226 50.5651 99.9815 48.9959 98.0908 47.0179C96.1645 45.0686 94.6409 42.7272 93.6142 40.1381C92.5875 37.5491 92.0795 34.7675 92.1216 31.9651C92.0713 29.175 92.5725 26.4042 93.5939 23.826C94.6153 21.2478 96.1349 18.9179 98.0574 16.9821ZM105.271 39.5463C106.213 40.5378 107.333 41.324 108.568 41.8594C109.803 42.3949 111.126 42.6689 112.463 42.6657C113.8 42.6624 115.122 42.382 116.354 41.8405C117.586 41.2991 118.704 40.5074 119.641 39.5114C120.601 38.5305 121.361 37.3558 121.874 36.0586C122.387 34.7614 122.643 33.3687 122.626 31.9651C122.568 29.1859 121.472 26.5409 119.571 24.5966C117.671 22.6524 115.117 21.5636 112.458 21.5636C109.799 21.5636 107.246 22.6524 105.346 24.5966C103.445 26.5409 102.349 29.1859 102.291 31.9651C102.277 33.3748 102.535 34.7729 103.051 36.0757C103.566 37.3784 104.328 38.5589 105.29 39.5463H105.271Z" fill="#FCF0E3"/>
<path d="M177.749 27.6477C178.4 30.8508 178.316 34.1693 177.506 37.3323C176.769 40.3496 175.407 43.1607 173.515 45.5665C171.623 47.9239 169.269 49.8293 166.612 51.154C163.63 52.6708 160.333 53.3855 157.02 53.2332C153.708 53.0809 150.484 52.0664 147.641 50.2817V58.6255C147.649 59.3272 147.52 60.0232 147.264 60.6717C147.007 61.3202 146.628 61.9076 146.149 62.3987C145.681 62.9158 145.116 63.3252 144.489 63.6007C143.862 63.8762 143.186 64.0118 142.506 63.9987H137.495V10.666H147.641V13.6566C150.081 12.0974 152.821 11.1201 155.664 10.7945C158.507 10.4688 161.384 10.8028 164.09 11.7725C167.525 12.9079 170.606 14.9874 173.01 17.7937C175.435 20.5541 177.076 23.9665 177.749 27.6477ZM150.611 39.5454C152.044 41.0311 153.865 42.0404 155.845 42.446C157.825 42.8516 159.876 42.6355 161.739 41.8248C163.602 41.0142 165.193 39.6452 166.313 37.8905C167.433 36.1357 168.031 34.0737 168.032 31.9642C168.032 29.1353 166.957 26.4222 165.044 24.4218C163.131 22.4215 160.535 21.2977 157.829 21.2977C155.123 21.2977 152.528 22.4215 150.615 24.4218C148.701 26.4222 147.627 29.1353 147.627 31.9642C147.61 33.3728 147.866 34.7703 148.379 36.073C148.892 37.3757 149.651 38.5567 150.611 39.5454Z" fill="#FCF0E3"/>
<path d="M249.79 37.5869H259.855C259.878 40.3979 259.183 43.1644 257.843 45.6017C256.528 48.0174 254.607 50.0128 252.289 51.3736C249.967 52.7638 247.336 53.4893 244.66 53.477C242.936 53.4838 241.223 53.189 239.592 52.6048C236.62 51.5117 234.048 49.4785 232.231 46.7873C230.415 44.0961 229.445 40.8805 229.456 37.5869V0.204164H234.453C235.356 0.199541 236.245 0.451025 237.023 0.931881C237.797 1.40639 238.442 2.08087 238.896 2.89073C239.355 3.7062 239.594 4.63631 239.588 5.58229V11.0302H259.855V21.5322H239.588V38.6735C239.844 39.9816 240.556 41.1437 241.585 41.9343C242.615 42.7249 243.888 43.0877 245.159 42.9523C246.43 42.817 247.607 42.1932 248.463 41.2018C249.319 40.2105 249.792 38.9222 249.79 37.5869Z" fill="#FCF0E3"/>
<path d="M30.6845 10.666V13.6566C27.589 11.7627 24.0681 10.7616 20.4815 10.7557C17.8106 10.7117 15.1592 11.2376 12.6893 12.3011C10.2194 13.3647 7.98282 14.9436 6.11635 16.9413C4.18897 18.8835 2.66441 21.2194 1.63751 23.8039C0.610597 26.3883 0.103295 29.166 0.14715 31.9642C0.105039 34.7666 0.61302 37.5482 1.63971 40.1372C2.6664 42.7263 4.18999 45.0677 6.11635 47.017C7.97561 49.0284 10.2096 50.62 12.6804 51.6933C15.1512 52.7667 17.8062 53.299 20.4815 53.2574C24.2369 53.2559 27.9161 52.1505 31.0992 50.0674C31.5206 50.9876 32.167 51.7751 32.973 52.3502C33.7863 52.9482 34.7582 53.2654 35.7525 53.2574H40.8445V10.666H30.6845ZM24.1241 25.654C24.372 23.8546 25.7451 22.6634 27.1897 23.0422C28.6343 23.421 29.6022 25.1356 29.3543 26.93C29.1063 28.7244 27.7332 29.9206 26.2886 29.5418C24.844 29.163 23.8761 27.4484 24.1241 25.654ZM18.255 19.588C19.5518 18.6709 21.3254 19.279 22.217 20.9438C23.1085 22.6085 22.7843 24.7119 21.4875 25.6291C20.1907 26.5462 18.4219 25.9431 17.5303 24.2733C16.6387 22.6036 16.9629 20.535 18.255 19.588ZM11.6231 22.5786C12.9199 21.6615 14.6935 22.2646 15.5851 23.9344C16.4766 25.6041 16.1524 27.7026 14.8556 28.6197C13.5588 29.5368 11.7899 28.9337 10.8984 27.2639C10.0068 25.5942 10.331 23.5257 11.6231 22.5986V22.5786ZM13.4014 35.3735C12.6624 36.7193 10.9079 36.9685 9.48236 35.9317C8.05681 34.895 7.50376 32.9411 8.24275 31.6203C8.98175 30.2994 10.7363 30.0253 12.1618 31.062C13.5874 32.0988 14.1452 34.0477 13.4014 35.3934V35.3735ZM29.3161 38.8625C27.5234 40.298 24.8917 38.6432 22.7176 39.6102C20.5149 40.4924 19.7139 43.5977 17.4731 43.8619C15.2322 44.126 13.5159 41.579 15.566 36.9436C16.9009 33.8234 16.5291 31.1517 18.994 30.0352C21.5066 29.0384 23.0179 31.2464 26.1122 32.5274C30.6558 34.3716 31.1088 37.452 29.3161 38.8825V38.8625Z" fill="#FCF0E3"/>
<path d="M212.244 37.906C211.209 39.7581 209.643 41.2229 207.767 42.0929C205.897 42.9914 203.806 43.2614 201.784 42.8655C199.808 42.5068 197.974 41.5562 196.506 40.129L223.238 27.6133L222.924 26.1678C222.888 25.8993 222.826 25.6353 222.738 25.3803C222.576 24.7723 222.373 24.1775 222.127 23.6009C221.305 21.638 220.177 19.8309 218.79 18.2527C215.996 14.8115 212.184 12.442 207.958 11.5188C203.7 10.5014 199.24 10.9833 195.271 12.8895C192.621 14.1171 190.254 15.9242 188.329 18.1889C186.403 20.4536 184.965 23.1233 184.11 26.0183C183.28 28.8718 183.027 31.8744 183.366 34.8357C183.768 38.353 185.022 41.705 187.008 44.5751C188.831 47.2911 191.241 49.5202 194.041 51.0819C196.841 52.6436 199.954 53.4941 203.127 53.5645C206.3 53.6349 209.444 52.9232 212.306 51.487C215.167 50.0508 217.664 47.9306 219.596 45.2978C221.199 43.0911 222.379 40.5811 223.071 37.906H212.244ZM195.5 25.5199C196.504 24.1719 197.816 23.1079 199.314 22.4246C200.806 21.7118 202.444 21.3934 204.082 21.4975C205.692 21.6022 207.259 22.0825 208.668 22.9031L193.469 30.0058C193.819 28.3716 194.513 26.8393 195.5 25.5199Z" fill="#FCF0E3"/>
</svg>
